<svg xmlns="http://www.w3.org/2000/svg" xmlns:xlink="http://www.w3.org/1999/xlink" width="600" zoomAndPan="magnify" viewBox="0 0 450 89.999999" height="120" preserveAspectRatio="xMidYMid meet" version="1.0"><defs><g/></defs><g fill="#000000" fill-opacity="1"><g transform="translate(9.000002, 60.749999)"><g><path d="M 11.363281 -7.539062 L 11.363281 -29.554688 L 13.820312 -29.554688 C 20.160156 -29.554688 24.417969 -24.746094 24.417969 -18.574219 C 24.417969 -12.402344 20.105469 -7.539062 13.820312 -7.539062 Z M 3.277344 -37.148438 L 3.277344 0 L 14.3125 0 C 24.855469 0 32.777344 -8.085938 32.777344 -18.574219 C 32.777344 -29.0625 24.800781 -37.148438 14.3125 -37.148438 Z M 3.277344 -37.148438 "/></g></g></g><g fill="#000000" fill-opacity="1"><g transform="translate(55.581275, 60.749999)"><g><path d="M 11.472656 0 L 11.472656 -37.148438 L 3.277344 -37.148438 L 3.277344 0 Z M 11.472656 0 "/></g></g></g><g fill="#000000" fill-opacity="1"><g transform="translate(82.234483, 60.749999)"><g><path d="M 21.851562 -30.046875 C 25.457031 -30.046875 29.171875 -28.570312 30.976562 -24.636719 L 39.988281 -24.636719 C 37.421875 -32.339844 30.046875 -37.695312 21.851562 -37.695312 C 11.363281 -37.695312 2.730469 -29.0625 2.730469 -18.574219 C 2.730469 -8.085938 11.363281 0.546875 21.851562 0.546875 C 32.449219 0.546875 40.917969 -8.03125 40.917969 -18.574219 L 40.917969 -19.832031 L 22.617188 -19.832031 L 22.617188 -13.65625 L 32.066406 -13.65625 C 30.046875 -8.03125 25.457031 -6.882812 21.851562 -6.882812 C 15.953125 -6.882812 11.035156 -12.183594 11.035156 -18.464844 C 11.035156 -24.746094 15.953125 -30.046875 21.851562 -30.046875 Z M 21.851562 -30.046875 "/></g></g></g><g fill="#000000" fill-opacity="1"><g transform="translate(136.950754, 60.749999)"><g><path d="M 11.472656 0 L 11.472656 -37.148438 L 3.277344 -37.148438 L 3.277344 0 Z M 11.472656 0 "/></g></g></g><g fill="#000000" fill-opacity="1"><g transform="translate(163.603963, 60.749999)"><g><path d="M 19.066406 -29.71875 L 29.664062 -29.71875 L 29.664062 -37.148438 L 0.273438 -37.148438 L 0.273438 -29.71875 L 10.871094 -29.71875 L 10.871094 0 L 19.066406 0 Z M 19.066406 -29.71875 "/></g></g></g><g fill="#000000" fill-opacity="1"><g transform="translate(205.435263, 60.749999)"><g><path d="M 23.492188 -14.203125 L 14.09375 -14.203125 L 18.792969 -27.425781 Z M 37.367188 0 L 22.289062 -37.148438 L 15.351562 -37.148438 L 0.273438 0 L 9.070312 0 L 11.746094 -7.484375 L 25.894531 -7.484375 L 28.570312 0 Z M 37.367188 0 "/></g></g></g><g fill="#000000" fill-opacity="1"><g transform="translate(254.964787, 60.749999)"><g><path d="M 3.277344 0 L 24.800781 0 L 24.800781 -7.429688 L 11.472656 -7.429688 L 11.472656 -37.148438 L 3.277344 -37.148438 Z M 3.277344 0 "/></g></g></g><g fill="#000000" fill-opacity="1"><g transform="translate(293.574828, 60.749999)"><g/></g></g><g fill="#000000" fill-opacity="1"><g transform="translate(319.136064, 60.749999)"><g><path d="M 3.277344 0 L 24.800781 0 L 24.800781 -7.429688 L 11.472656 -7.429688 L 11.472656 -37.148438 L 3.277344 -37.148438 Z M 3.277344 0 "/></g></g></g><g fill="#000000" fill-opacity="1"><g transform="translate(357.746104, 60.749999)"><g><path d="M 23.492188 -14.203125 L 14.09375 -14.203125 L 18.792969 -27.425781 Z M 37.367188 0 L 22.289062 -37.148438 L 15.351562 -37.148438 L 0.273438 0 L 9.070312 0 L 11.746094 -7.484375 L 25.894531 -7.484375 L 28.570312 0 Z M 37.367188 0 "/></g></g></g><g fill="#000000" fill-opacity="1"><g transform="translate(407.275629, 60.749999)"><g><path d="M 21.195312 -10.871094 C 21.195312 -8.414062 19.121094 -6.390625 16.664062 -6.390625 L 11.472656 -6.390625 L 11.472656 -15.351562 L 16.664062 -15.351562 C 19.121094 -15.351562 21.195312 -13.273438 21.195312 -10.871094 Z M 18.628906 -26.386719 C 18.628906 -24.039062 16.664062 -22.070312 14.3125 -22.070312 L 11.472656 -22.070312 L 11.472656 -30.703125 L 14.3125 -30.703125 C 16.664062 -30.703125 18.628906 -28.789062 18.628906 -26.386719 Z M 29.554688 -10.652344 C 29.554688 -15.679688 26.167969 -19.011719 22.015625 -19.996094 C 24.800781 -21.25 26.441406 -24.09375 26.441406 -27.859375 C 26.441406 -32.941406 22.398438 -37.148438 16.0625 -37.148438 L 3.277344 -37.148438 L 3.277344 0 L 18.300781 0 C 25.402344 0 29.554688 -4.261719 29.554688 -10.652344 Z M 29.554688 -10.652344 "/></g></g></g></svg>