<?xml version="1.0" encoding="UTF-8"?>
<svg xmlns="http://www.w3.org/2000/svg" xmlns:xlink="http://www.w3.org/1999/xlink" width="175px" height="35px" viewBox="0 0 175 35" version="1.1">
<g id="surface1">
<rect x="0" y="0" width="175" height="35" style="fill:rgb(100%,100%,100%);fill-opacity:1;stroke:none;"/>
<path style=" stroke:none;fill-rule:nonzero;fill:rgb(0%,0%,0%);fill-opacity:1;" d="M 10.296875 18.640625 L 7.578125 18.640625 L 8.933594 14.816406 Z M 14.308594 22.75 L 9.945312 12.003906 L 7.941406 12.003906 L 3.578125 22.75 L 6.125 22.75 L 6.898438 20.585938 L 10.992188 20.585938 L 11.765625 22.75 Z M 14.308594 22.75 "/>
<path style=" stroke:none;fill-rule:nonzero;fill:rgb(0%,0%,0%);fill-opacity:1;" d="M 25.054688 12.003906 L 25.054688 18.214844 C 25.054688 19.699219 24.613281 20.539062 22.984375 20.539062 C 21.371094 20.539062 20.914062 19.699219 20.914062 18.214844 L 20.914062 12.003906 L 18.542969 12.003906 L 18.542969 18.5625 C 18.542969 21.421875 20.1875 22.910156 22.984375 22.910156 C 25.78125 22.910156 27.421875 21.421875 27.421875 18.5625 L 27.421875 12.003906 Z M 25.054688 12.003906 "/>
<path style=" stroke:none;fill-rule:nonzero;fill:rgb(0%,0%,0%);fill-opacity:1;" d="M 37.898438 14.058594 C 38.945312 14.058594 40.019531 14.484375 40.539062 15.625 L 43.148438 15.625 C 42.402344 13.394531 40.269531 11.847656 37.898438 11.847656 C 34.867188 11.847656 32.367188 14.34375 32.367188 17.378906 C 32.367188 20.410156 34.867188 22.910156 37.898438 22.910156 C 40.964844 22.910156 43.414062 20.429688 43.414062 17.378906 L 43.414062 17.015625 L 38.121094 17.015625 L 38.121094 18.800781 L 40.855469 18.800781 C 40.269531 20.429688 38.945312 20.757812 37.898438 20.757812 C 36.195312 20.757812 34.769531 19.226562 34.769531 17.410156 C 34.769531 15.59375 36.195312 14.058594 37.898438 14.058594 Z M 37.898438 14.058594 "/>
<path style=" stroke:none;fill-rule:nonzero;fill:rgb(0%,0%,0%);fill-opacity:1;" d="M 54.632812 12.003906 L 54.632812 18.214844 C 54.632812 19.699219 54.191406 20.539062 52.5625 20.539062 C 50.953125 20.539062 50.492188 19.699219 50.492188 18.214844 L 50.492188 12.003906 L 48.121094 12.003906 L 48.121094 18.5625 C 48.121094 21.421875 49.765625 22.910156 52.5625 22.910156 C 55.359375 22.910156 57.003906 21.421875 57.003906 18.5625 L 57.003906 12.003906 Z M 54.632812 12.003906 "/>
<path style=" stroke:none;fill-rule:nonzero;fill:rgb(0%,0%,0%);fill-opacity:1;" d="M 66.277344 21.074219 C 65.109375 21.074219 64.097656 20.492188 64.035156 19.210938 L 61.632812 19.210938 C 61.648438 21.835938 63.816406 23.003906 66.183594 23.003906 C 68.382812 23.003906 70.640625 22.070312 70.640625 19.542969 C 70.640625 15.449219 64.429688 16.824219 64.429688 14.914062 C 64.429688 14.105469 65.363281 13.792969 66.027344 13.792969 C 67.210938 13.792969 67.859375 14.152344 67.984375 15.277344 L 70.277344 15.277344 C 70.199219 12.828125 68.207031 11.847656 65.996094 11.847656 C 64.035156 11.847656 61.980469 12.890625 61.980469 15.101562 C 61.980469 19.070312 68.191406 17.726562 68.191406 19.8125 C 68.191406 20.777344 67.019531 21.074219 66.277344 21.074219 Z M 66.277344 21.074219 "/>
<path style=" stroke:none;fill-rule:nonzero;fill:rgb(0%,0%,0%);fill-opacity:1;" d="M 80.074219 14.152344 L 83.140625 14.152344 L 83.140625 12.003906 L 74.636719 12.003906 L 74.636719 14.152344 L 77.703125 14.152344 L 77.703125 22.75 L 80.074219 22.75 Z M 80.074219 14.152344 "/>
<path style=" stroke:none;fill-rule:nonzero;fill:rgb(0%,0%,0%);fill-opacity:1;" d="M 93.457031 18.640625 L 90.738281 18.640625 L 92.097656 14.816406 Z M 97.472656 22.75 L 93.109375 12.003906 L 91.101562 12.003906 L 86.742188 22.75 L 89.285156 22.75 L 90.0625 20.585938 L 94.152344 20.585938 L 94.929688 22.75 Z M 97.472656 22.75 "/>
<path style=" stroke:none;fill-rule:nonzero;fill:rgb(0%,0%,0%);fill-opacity:1;" d="M 114.519531 19.605469 C 114.519531 20.316406 113.921875 20.902344 113.210938 20.902344 L 111.710938 20.902344 L 111.710938 18.308594 L 113.210938 18.308594 C 113.921875 18.308594 114.519531 18.910156 114.519531 19.605469 Z M 113.777344 15.117188 C 113.777344 15.796875 113.210938 16.367188 112.53125 16.367188 L 111.710938 16.367188 L 111.710938 13.871094 L 112.53125 13.871094 C 113.210938 13.871094 113.777344 14.421875 113.777344 15.117188 Z M 116.941406 19.671875 C 116.941406 18.214844 115.960938 17.25 114.757812 16.96875 C 115.566406 16.601562 116.039062 15.78125 116.039062 14.691406 C 116.039062 13.222656 114.867188 12.003906 113.035156 12.003906 L 109.339844 12.003906 L 109.339844 22.75 L 113.683594 22.75 C 115.738281 22.75 116.941406 21.519531 116.941406 19.671875 Z M 116.941406 19.671875 "/>
<path style=" stroke:none;fill-rule:nonzero;fill:rgb(0%,0%,0%);fill-opacity:1;" d="M 127.335938 18.640625 L 124.617188 18.640625 L 125.976562 14.816406 Z M 131.351562 22.75 L 126.988281 12.003906 L 124.980469 12.003906 L 120.621094 22.75 L 123.164062 22.75 L 123.941406 20.585938 L 128.03125 20.585938 L 128.808594 22.75 Z M 131.351562 22.75 "/>
<path style=" stroke:none;fill-rule:nonzero;fill:rgb(0%,0%,0%);fill-opacity:1;" d="M 144.261719 22.75 L 144.261719 12.003906 L 141.890625 12.003906 L 141.890625 18.707031 L 138.191406 12.003906 L 135.820312 12.003906 L 135.820312 22.75 L 138.191406 22.75 L 138.191406 16.050781 L 141.890625 22.75 Z M 144.261719 22.75 "/>
<path style=" stroke:none;fill-rule:nonzero;fill:rgb(0%,0%,0%);fill-opacity:1;" d="M 151.941406 20.570312 L 151.941406 14.203125 L 152.652344 14.203125 C 154.484375 14.203125 155.714844 15.59375 155.714844 17.378906 C 155.714844 19.164062 154.46875 20.570312 152.652344 20.570312 Z M 149.601562 12.003906 L 149.601562 22.75 L 152.792969 22.75 C 155.84375 22.75 158.132812 20.410156 158.132812 17.378906 C 158.132812 14.34375 155.828125 12.003906 152.792969 12.003906 Z M 149.601562 12.003906 "/>
<path style=" stroke:none;fill-rule:nonzero;fill:rgb(0%,0%,0%);fill-opacity:1;" d="M 169.304688 20.601562 L 165.449219 20.601562 L 165.449219 18.4375 L 169.148438 18.4375 L 169.148438 16.285156 L 165.449219 16.285156 L 165.449219 14.152344 L 169.304688 14.152344 L 169.304688 12.003906 L 163.078125 12.003906 L 163.078125 22.75 L 169.304688 22.75 Z M 169.304688 20.601562 "/>
</g>
</svg>
