<svg xmlns="http://www.w3.org/2000/svg" xmlns:xlink="http://www.w3.org/1999/xlink" width="600" zoomAndPan="magnify" viewBox="0 0 450 89.999999" height="120" preserveAspectRatio="xMidYMid meet" version="1.0"><defs><g/></defs><rect x="-45" width="540" fill="#ffffff" y="-9" height="107.999999" fill-opacity="1"/><rect x="-45" width="540" fill="#ffffff" y="-9" height="107.999999" fill-opacity="1"/><g fill="#000000" fill-opacity="1"><g transform="translate(9.000002, 58.50213)"><g><path d="M 17.472656 -10.566406 L 10.484375 -10.566406 L 13.976562 -20.398438 Z M 27.792969 0 L 16.578125 -27.632812 L 11.417969 -27.632812 L 0.203125 0 L 6.746094 0 L 8.738281 -5.566406 L 19.261719 -5.566406 L 21.253906 0 Z M 27.792969 0 "/></g></g></g><g fill="#000000" fill-opacity="1"><g transform="translate(45.85326, 58.50213)"><g><path d="M 18.570312 -27.632812 L 18.570312 -11.664062 C 18.570312 -7.84375 17.433594 -5.6875 13.246094 -5.6875 C 9.101562 -5.6875 7.921875 -7.84375 7.921875 -11.664062 L 7.921875 -27.632812 L 1.828125 -27.632812 L 1.828125 -10.769531 C 1.828125 -3.414062 6.054688 0.40625 13.246094 0.40625 C 20.4375 0.40625 24.664062 -3.414062 24.664062 -10.769531 L 24.664062 -27.632812 Z M 18.570312 -27.632812 "/></g></g></g><g fill="#000000" fill-opacity="1"><g transform="translate(81.203245, 58.50213)"><g><path d="M 16.253906 -22.347656 C 18.9375 -22.347656 21.699219 -21.253906 23.039062 -18.328125 L 29.746094 -18.328125 C 27.835938 -24.054688 22.347656 -28.039062 16.253906 -28.039062 C 8.453125 -28.039062 2.03125 -21.617188 2.03125 -13.816406 C 2.03125 -6.015625 8.453125 0.40625 16.253906 0.40625 C 24.136719 0.40625 30.4375 -5.972656 30.4375 -13.816406 L 30.4375 -14.75 L 16.824219 -14.75 L 16.824219 -10.160156 L 23.851562 -10.160156 C 22.347656 -5.972656 18.9375 -5.121094 16.253906 -5.121094 C 11.867188 -5.121094 8.207031 -9.0625 8.207031 -13.734375 C 8.207031 -18.40625 11.867188 -22.347656 16.253906 -22.347656 Z M 16.253906 -22.347656 "/></g></g></g><g fill="#000000" fill-opacity="1"><g transform="translate(121.916241, 58.50213)"><g><path d="M 18.570312 -27.632812 L 18.570312 -11.664062 C 18.570312 -7.84375 17.433594 -5.6875 13.246094 -5.6875 C 9.101562 -5.6875 7.921875 -7.84375 7.921875 -11.664062 L 7.921875 -27.632812 L 1.828125 -27.632812 L 1.828125 -10.769531 C 1.828125 -3.414062 6.054688 0.40625 13.246094 0.40625 C 20.4375 0.40625 24.664062 -3.414062 24.664062 -10.769531 L 24.664062 -27.632812 Z M 18.570312 -27.632812 "/></g></g></g><g fill="#000000" fill-opacity="1"><g transform="translate(157.266226, 58.50213)"><g><path d="M 13.164062 -4.308594 C 10.160156 -4.308594 7.558594 -5.8125 7.394531 -9.101562 L 1.21875 -9.101562 C 1.257812 -2.355469 6.828125 0.648438 12.921875 0.648438 C 18.570312 0.648438 24.382812 -1.746094 24.382812 -8.25 C 24.382812 -18.773438 8.410156 -15.238281 8.410156 -20.15625 C 8.410156 -22.226562 10.808594 -23.039062 12.515625 -23.039062 C 15.5625 -23.039062 17.230469 -22.105469 17.554688 -19.21875 L 23.445312 -19.21875 C 23.242188 -25.519531 18.125 -28.039062 12.433594 -28.039062 C 7.394531 -28.039062 2.113281 -25.355469 2.113281 -19.667969 C 2.113281 -9.46875 18.082031 -12.921875 18.082031 -7.558594 C 18.082031 -5.078125 15.074219 -4.308594 13.164062 -4.308594 Z M 13.164062 -4.308594 "/></g></g></g><g fill="#000000" fill-opacity="1"><g transform="translate(191.722382, 58.50213)"><g><path d="M 14.179688 -22.105469 L 22.066406 -22.105469 L 22.066406 -27.632812 L 0.203125 -27.632812 L 0.203125 -22.105469 L 8.085938 -22.105469 L 8.085938 0 L 14.179688 0 Z M 14.179688 -22.105469 "/></g></g></g><g fill="#000000" fill-opacity="1"><g transform="translate(222.846969, 58.50213)"><g><path d="M 17.472656 -10.566406 L 10.484375 -10.566406 L 13.976562 -20.398438 Z M 27.792969 0 L 16.578125 -27.632812 L 11.417969 -27.632812 L 0.203125 0 L 6.746094 0 L 8.738281 -5.566406 L 19.261719 -5.566406 L 21.253906 0 Z M 27.792969 0 "/></g></g></g><g fill="#000000" fill-opacity="1"><g transform="translate(259.700216, 58.50213)"><g/></g></g><g fill="#000000" fill-opacity="1"><g transform="translate(278.717411, 58.50213)"><g><path d="M 15.765625 -8.085938 C 15.765625 -6.257812 14.222656 -4.753906 12.394531 -4.753906 L 8.535156 -4.753906 L 8.535156 -11.417969 L 12.394531 -11.417969 C 14.222656 -11.417969 15.765625 -9.875 15.765625 -8.085938 Z M 13.855469 -19.625 C 13.855469 -17.878906 12.394531 -16.417969 10.644531 -16.417969 L 8.535156 -16.417969 L 8.535156 -22.835938 L 10.644531 -22.835938 C 12.394531 -22.835938 13.855469 -21.414062 13.855469 -19.625 Z M 21.984375 -7.921875 C 21.984375 -11.664062 19.464844 -14.140625 16.375 -14.871094 C 18.449219 -15.808594 19.667969 -17.921875 19.667969 -20.722656 C 19.667969 -24.503906 16.660156 -27.632812 11.945312 -27.632812 L 2.4375 -27.632812 L 2.4375 0 L 13.613281 0 C 18.894531 0 21.984375 -3.167969 21.984375 -7.921875 Z M 21.984375 -7.921875 "/></g></g></g><g fill="#000000" fill-opacity="1"><g transform="translate(309.9639, 58.50213)"><g><path d="M 17.472656 -10.566406 L 10.484375 -10.566406 L 13.976562 -20.398438 Z M 27.792969 0 L 16.578125 -27.632812 L 11.417969 -27.632812 L 0.203125 0 L 6.746094 0 L 8.738281 -5.566406 L 19.261719 -5.566406 L 21.253906 0 Z M 27.792969 0 "/></g></g></g><g fill="#000000" fill-opacity="1"><g transform="translate(346.817169, 58.50213)"><g><path d="M 24.136719 0 L 24.136719 -27.632812 L 18.042969 -27.632812 L 18.042969 -10.402344 L 8.535156 -27.632812 L 2.4375 -27.632812 L 2.4375 0 L 8.535156 0 L 8.535156 -17.230469 L 18.042969 0 Z M 24.136719 0 "/></g></g></g><g fill="#000000" fill-opacity="1"><g transform="translate(382.248419, 58.50213)"><g><path d="M 8.453125 -5.609375 L 8.453125 -21.984375 L 10.28125 -21.984375 C 14.996094 -21.984375 18.164062 -18.40625 18.164062 -13.816406 C 18.164062 -9.222656 14.953125 -5.609375 10.28125 -5.609375 Z M 2.4375 -27.632812 L 2.4375 0 L 10.644531 0 C 18.488281 0 24.382812 -6.015625 24.382812 -13.816406 C 24.382812 -21.617188 18.449219 -27.632812 10.644531 -27.632812 Z M 2.4375 -27.632812 "/></g></g></g><g fill="#000000" fill-opacity="1"><g transform="translate(416.907696, 58.50213)"><g><path d="M 18.449219 -5.527344 L 8.535156 -5.527344 L 8.535156 -11.09375 L 18.042969 -11.09375 L 18.042969 -16.621094 L 8.535156 -16.621094 L 8.535156 -22.105469 L 18.449219 -22.105469 L 18.449219 -27.632812 L 2.4375 -27.632812 L 2.4375 0 L 18.449219 0 Z M 18.449219 -5.527344 "/></g></g></g></svg>